<svg xmlns="http://www.w3.org/2000/svg" xmlns:xlink="http://www.w3.org/1999/xlink" width="1000" zoomAndPan="magnify" viewBox="0 0 750 119.999999" height="160" preserveAspectRatio="xMidYMid meet" version="1.0"><defs><g/></defs><g fill="#ffffff" fill-opacity="1"><g transform="translate(0.23438, 82.179598)"><g><path d="M 14.171875 -41.25 C 14.171875 -37.269531 15.300781 -35.148438 17.5625 -34.890625 C 17.394531 -34.128906 16.773438 -33.75 15.703125 -33.75 C 13.503906 -33.75 11.945312 -35.09375 11.03125 -37.78125 C 10.601562 -39.019531 10.390625 -40.535156 10.390625 -42.328125 C 10.390625 -44.128906 11.085938 -46.296875 12.484375 -48.828125 C 15.648438 -54.679688 21.394531 -58.4375 29.71875 -60.09375 C 32.570312 -60.632812 35.625 -60.90625 38.875 -60.90625 C 42.125 -60.90625 44.898438 -61.226562 47.203125 -61.875 C 49.515625 -62.519531 51.097656 -63.242188 51.953125 -64.046875 C 54.210938 -66.140625 55.878906 -67.1875 56.953125 -67.1875 C 58.023438 -67.1875 58.5625 -66.863281 58.5625 -66.21875 C 58.5625 -66.0625 58.5625 -65.898438 58.5625 -65.734375 C 58.1875 -64.234375 56.578125 -62.8125 53.734375 -61.46875 C 52.015625 -60.71875 50.082031 -60.128906 47.9375 -59.703125 C 46.164062 -58.941406 44.6875 -56.882812 43.5 -53.53125 C 42.320312 -50.175781 41.085938 -45.332031 39.796875 -39 C 42.585938 -39.257812 44.894531 -39.390625 46.71875 -39.390625 C 47.207031 -39.390625 47.425781 -39.097656 47.375 -38.515625 C 47.15625 -37.867188 46.585938 -37.53125 45.671875 -37.5 C 44.765625 -37.476562 42.644531 -37.195312 39.3125 -36.65625 C 36.789062 -24.195312 34.585938 -15.390625 32.703125 -10.234375 C 27.972656 2.816406 21.234375 9.34375 12.484375 9.34375 C 6.203125 9.34375 2.28125 6.46875 0.71875 0.71875 C 0.132812 -1.257812 -0.15625 -3.242188 -0.15625 -5.234375 C -0.15625 -8.992188 0.832031 -12.753906 2.8125 -16.515625 C 5.820312 -22.265625 9.769531 -25.140625 14.65625 -25.140625 C 15.351562 -25.140625 15.929688 -24.976562 16.390625 -24.65625 C 16.847656 -24.332031 17.15625 -23.847656 17.3125 -23.203125 C 12.695312 -23.203125 8.882812 -20.8125 5.875 -16.03125 C 3.507812 -12.320312 2.328125 -8.484375 2.328125 -4.515625 C 2.328125 1.285156 4.367188 4.832031 8.453125 6.125 C 9.421875 6.394531 10.679688 6.53125 12.234375 6.53125 C 13.796875 6.53125 15.445312 6.082031 17.1875 5.1875 C 18.9375 4.300781 20.519531 2.691406 21.9375 0.359375 C 23.363281 -1.972656 24.535156 -3.929688 25.453125 -5.515625 C 26.367188 -7.097656 27.414062 -9.929688 28.59375 -14.015625 C 29.988281 -19.015625 31.171875 -23.644531 32.140625 -27.90625 C 33.109375 -32.175781 33.703125 -34.742188 33.921875 -35.609375 C 30.910156 -35.128906 28.640625 -34.890625 27.109375 -34.890625 C 25.578125 -34.890625 24.703125 -35.554688 24.484375 -36.890625 C 24.429688 -37.972656 24.726562 -38.59375 25.375 -38.75 C 25.644531 -38.425781 26.488281 -38.265625 27.90625 -38.265625 C 29.332031 -38.265625 31.578125 -38.398438 34.640625 -38.671875 C 35.984375 -43.929688 37.269531 -48.210938 38.5 -51.515625 C 39.738281 -54.816406 41.191406 -57.328125 42.859375 -59.046875 C 41.992188 -58.992188 40.648438 -58.96875 38.828125 -58.96875 C 28.515625 -58.96875 21.289062 -55.9375 17.15625 -49.875 C 15.164062 -47.019531 14.171875 -44.144531 14.171875 -41.25 Z M 49.625 -24.734375 C 49.625 -24.460938 49.378906 -24.328125 48.890625 -24.328125 C 48.410156 -24.328125 47.941406 -24.429688 47.484375 -24.640625 C 47.023438 -24.859375 46.796875 -25.15625 46.796875 -25.53125 C 46.796875 -31.007812 47.414062 -35.425781 48.65625 -38.78125 C 49.894531 -42.144531 51.535156 -43.828125 53.578125 -43.828125 C 54.109375 -43.828125 54.5625 -43.640625 54.9375 -43.265625 C 55.3125 -42.890625 55.5 -42.378906 55.5 -41.734375 C 53.082031 -39.316406 51.335938 -35.71875 50.265625 -30.9375 C 49.835938 -28.945312 49.625 -26.878906 49.625 -24.734375 Z M 49.625 -24.734375 "/></g></g></g><g fill="#ffffff" fill-opacity="1"><g transform="translate(55.014795, 82.179598)"><g><path d="M 6.765625 0 C 2.359375 0 0.15625 -3.460938 0.15625 -10.390625 C 0.15625 -14.523438 1.175781 -19.0625 3.21875 -24 C 6.070312 -30.9375 9.804688 -35.664062 14.421875 -38.1875 C 16.410156 -39.257812 18.265625 -39.796875 19.984375 -39.796875 C 21.703125 -39.796875 23.054688 -39.421875 24.046875 -38.671875 C 25.035156 -37.921875 25.664062 -37.171875 25.9375 -36.421875 L 26.421875 -35.359375 C 26.265625 -34.453125 25.8125 -34 25.0625 -34 C 24.195312 -34 23.695312 -34.195312 23.5625 -34.59375 C 23.425781 -35 23.273438 -35.347656 23.109375 -35.640625 C 22.953125 -35.941406 22.578125 -36.347656 21.984375 -36.859375 C 21.398438 -37.367188 20.734375 -37.625 19.984375 -37.625 C 16.492188 -37.625 13.320312 -34.484375 10.46875 -28.203125 C 7.25 -20.953125 5.640625 -14.128906 5.640625 -7.734375 C 5.640625 -4.515625 6.285156 -2.90625 7.578125 -2.90625 C 8.597656 -2.90625 10.03125 -4.046875 11.875 -6.328125 C 13.726562 -8.609375 15.675781 -11.46875 17.71875 -14.90625 C 21.269531 -20.8125 24.144531 -25.941406 26.34375 -30.296875 C 28.164062 -34.160156 30.046875 -36.09375 31.984375 -36.09375 C 33.003906 -36.09375 33.515625 -35.472656 33.515625 -34.234375 C 33.023438 -33.210938 32.40625 -31.757812 31.65625 -29.875 C 30.90625 -28 29.910156 -24.269531 28.671875 -18.6875 C 27.441406 -13.101562 26.828125 -7.546875 26.828125 -2.015625 C 26.828125 3.515625 27.660156 6.28125 29.328125 6.28125 C 29.972656 6.28125 30.5625 6 31.09375 5.4375 C 31.632812 4.875 32.117188 4.03125 32.546875 2.90625 C 32.703125 2.3125 33.078125 2.015625 33.671875 2.015625 C 33.890625 2.015625 34.050781 2.09375 34.15625 2.25 C 34.257812 2.414062 34.257812 2.6875 34.15625 3.0625 C 34.050781 3.4375 33.863281 3.957031 33.59375 4.625 C 33.320312 5.300781 32.742188 6.203125 31.859375 7.328125 C 30.972656 8.453125 30.046875 9.015625 29.078125 9.015625 C 26.828125 9.015625 25.097656 7.535156 23.890625 4.578125 C 22.679688 1.628906 22.078125 -1.851562 22.078125 -5.875 C 22.078125 -9.90625 22.367188 -13.773438 22.953125 -17.484375 L 22.15625 -17.484375 C 15.332031 -5.828125 10.203125 0 6.765625 0 Z M 6.765625 0 "/></g></g></g><g fill="#ffffff" fill-opacity="1"><g transform="translate(93.522205, 82.179598)"><g><path d="M 25.53125 -36.5 C 27.09375 -35.3125 28.582031 -34.71875 30 -34.71875 C 31.425781 -34.71875 32.4375 -34.90625 33.03125 -35.28125 C 33.03125 -34.582031 32.71875 -33.925781 32.09375 -33.3125 C 31.476562 -32.695312 30.59375 -32.390625 29.4375 -32.390625 C 28.289062 -32.390625 27.046875 -32.65625 25.703125 -33.1875 C 25.535156 -28.144531 24.566406 -22.976562 22.796875 -17.6875 C 21.023438 -12.394531 18.742188 -7.960938 15.953125 -4.390625 C 13.160156 -0.816406 10.378906 0.96875 7.609375 0.96875 C 4.847656 0.96875 2.875 -0.171875 1.6875 -2.453125 C 0.507812 -4.734375 -0.078125 -7.351562 -0.078125 -10.3125 C -0.078125 -13.851562 0.414062 -17.648438 1.40625 -21.703125 C 2.394531 -25.765625 3.5625 -29.03125 4.90625 -31.5 C 6.25 -33.96875 7.457031 -35.203125 8.53125 -35.203125 C 9.613281 -35.203125 10.15625 -34.640625 10.15625 -33.515625 C 6.769531 -21.804688 5.078125 -13.585938 5.078125 -8.859375 C 5.078125 -4.128906 6.125 -1.765625 8.21875 -1.765625 C 10.039062 -1.765625 12.117188 -3.347656 14.453125 -6.515625 C 16.796875 -9.691406 18.828125 -13.867188 20.546875 -19.046875 C 22.265625 -24.234375 23.125 -29.296875 23.125 -34.234375 L 23.125 -34.71875 C 21.5625 -35.851562 20.296875 -37.195312 19.328125 -38.75 C 18.359375 -40.3125 17.875 -41.476562 17.875 -42.25 C 17.875 -43.03125 18.222656 -43.742188 18.921875 -44.390625 C 19.628906 -45.035156 20.382812 -45.359375 21.1875 -45.359375 C 22.15625 -45.359375 23.054688 -44.457031 23.890625 -42.65625 C 24.722656 -40.851562 25.269531 -38.800781 25.53125 -36.5 Z M 25.53125 -36.5 "/></g></g></g><g fill="#ffffff" fill-opacity="1"><g transform="translate(124.859823, 82.179598)"><g><path d="M 9.90625 0.71875 C 3.300781 0.71875 0 -3.816406 0 -12.890625 C 0 -17.992188 1.285156 -23.097656 3.859375 -28.203125 C 7.140625 -34.640625 11.035156 -37.859375 15.546875 -37.859375 C 16.191406 -37.859375 16.726562 -37.695312 17.15625 -37.375 C 17.582031 -37.050781 17.878906 -36.570312 18.046875 -35.9375 C 14.660156 -35.9375 11.734375 -33.222656 9.265625 -27.796875 C 6.796875 -22.367188 5.5625 -17.023438 5.5625 -11.765625 C 5.5625 -5.367188 7.304688 -2.171875 10.796875 -2.171875 C 12.785156 -2.171875 14.851562 -3.6875 17 -6.71875 C 19.144531 -9.757812 20.925781 -13.75 22.34375 -18.6875 C 23.769531 -23.632812 24.484375 -28.601562 24.484375 -33.59375 L 24.484375 -34.5625 C 22.816406 -35.632812 21.445312 -36.972656 20.375 -38.578125 C 19.300781 -40.191406 18.765625 -41.375 18.765625 -42.125 C 18.765625 -42.882812 19.097656 -43.597656 19.765625 -44.265625 C 20.441406 -44.941406 21.128906 -45.28125 21.828125 -45.28125 C 22.847656 -45.28125 23.84375 -44.363281 24.8125 -42.53125 C 25.78125 -40.707031 26.453125 -38.640625 26.828125 -36.328125 C 28.492188 -35.203125 29.957031 -34.640625 31.21875 -34.640625 C 32.476562 -34.640625 33.484375 -34.851562 34.234375 -35.28125 C 34.234375 -34.53125 33.960938 -33.859375 33.421875 -33.265625 C 32.890625 -32.679688 32.054688 -32.390625 30.921875 -32.390625 C 29.796875 -32.390625 28.507812 -32.65625 27.0625 -33.1875 C 27.007812 -28.03125 26.226562 -22.847656 24.71875 -17.640625 C 23.21875 -12.429688 21.125 -8.066406 18.4375 -4.546875 C 15.757812 -1.035156 12.914062 0.71875 9.90625 0.71875 Z M 9.90625 0.71875 "/></g></g></g><g fill="#ffffff" fill-opacity="1"><g transform="translate(158.130863, 82.179598)"><g><path d="M 25.625 -23.125 C 23.582031 -23.125 22.5625 -25.351562 22.5625 -29.8125 C 22.5625 -32.332031 23.039062 -34.691406 24 -36.890625 C 20.351562 -33.722656 16.273438 -27.828125 11.765625 -19.203125 C 7.253906 -10.585938 5 -4.96875 5 -2.34375 C 5 -1.695312 4.566406 -1.375 3.703125 -1.375 C 2.148438 -1.375 1.375 -3.492188 1.375 -7.734375 C 1.375 -15.734375 2.175781 -22.984375 3.78125 -29.484375 C 5.394531 -35.984375 7.359375 -39.234375 9.671875 -39.234375 C 10.691406 -39.234375 11.203125 -38.644531 11.203125 -37.46875 C 8.734375 -29.625 6.957031 -21.59375 5.875 -13.375 L 6.4375 -13.375 C 10.789062 -23.414062 15.597656 -31.253906 20.859375 -36.890625 C 23.867188 -40.117188 26.609375 -41.734375 29.078125 -41.734375 C 29.617188 -41.734375 30.0625 -41.570312 30.40625 -41.25 C 30.757812 -40.925781 30.9375 -40.523438 30.9375 -40.046875 C 30.5625 -39.660156 30.101562 -39.09375 29.5625 -38.34375 C 29.03125 -37.59375 28.304688 -35.804688 27.390625 -32.984375 C 26.472656 -30.171875 26.015625 -27.097656 26.015625 -23.765625 C 26.015625 -23.335938 25.882812 -23.125 25.625 -23.125 Z M 25.625 -23.125 "/></g></g></g><g fill="#ffffff" fill-opacity="1"><g transform="translate(188.985129, 82.179598)"><g><path d="M 2.09375 -6.84375 C 2.09375 -14.789062 2.910156 -21.878906 4.546875 -28.109375 C 6.191406 -34.347656 8.273438 -37.46875 10.796875 -37.46875 C 12.023438 -37.46875 12.640625 -36.796875 12.640625 -35.453125 C 12.109375 -34.054688 11.4375 -32.203125 10.625 -29.890625 C 9.820312 -27.578125 8.765625 -23.398438 7.453125 -17.359375 C 6.140625 -11.316406 5.484375 -5.929688 5.484375 -1.203125 C 5.484375 -0.453125 5.078125 -0.078125 4.265625 -0.078125 C 2.816406 -0.078125 2.09375 -2.332031 2.09375 -6.84375 Z M 12.890625 -45.03125 C 11.765625 -45.03125 11.203125 -46.101562 11.203125 -48.25 C 11.203125 -49.539062 11.550781 -50.894531 12.25 -52.3125 C 12.945312 -53.738281 13.9375 -54.453125 15.21875 -54.453125 C 16.300781 -54.453125 16.84375 -53.835938 16.84375 -52.609375 C 16.84375 -51.367188 15.847656 -49.300781 13.859375 -46.40625 Z M 12.890625 -45.03125 "/></g></g></g><g fill="#ffffff" fill-opacity="1"><g transform="translate(206.547082, 82.179598)"><g><path d="M 4.75 -34.890625 C 2.65625 -34.890625 1.609375 -35.75 1.609375 -37.46875 C 1.609375 -38.101562 1.878906 -38.503906 2.421875 -38.671875 C 2.472656 -38.722656 2.550781 -38.75 2.65625 -38.75 C 2.976562 -38.375 3.582031 -38.1875 4.46875 -38.1875 C 5.351562 -38.1875 6.765625 -38.238281 8.703125 -38.34375 C 11.222656 -45.164062 13.640625 -48.578125 15.953125 -48.578125 C 16.867188 -48.578125 17.328125 -48.066406 17.328125 -47.046875 C 16.460938 -44.898438 15.492188 -42.132812 14.421875 -38.75 C 19.734375 -39.34375 23.195312 -39.640625 24.8125 -39.640625 C 25.238281 -39.640625 25.453125 -39.425781 25.453125 -39 C 25.453125 -38.132812 24.890625 -37.703125 23.765625 -37.703125 C 23.171875 -37.703125 19.757812 -37.140625 13.53125 -36.015625 C 9.289062 -22.585938 7.171875 -11.707031 7.171875 -3.375 C 7.171875 4.945312 8.835938 9.109375 12.171875 9.109375 C 13.503906 9.109375 14.757812 8.53125 15.9375 7.375 C 17.125 6.21875 17.960938 5.078125 18.453125 3.953125 C 18.660156 3.359375 19.113281 3.195312 19.8125 3.46875 C 20.132812 3.570312 20.242188 3.734375 20.140625 3.953125 C 19.816406 4.648438 19.410156 5.453125 18.921875 6.359375 C 18.441406 7.273438 17.503906 8.40625 16.109375 9.75 C 14.710938 11.09375 13.289062 11.765625 11.84375 11.765625 C 5.445312 11.765625 2.25 6.203125 2.25 -4.921875 C 2.25 -14.316406 4 -24.359375 7.5 -35.046875 C 6.738281 -34.941406 5.820312 -34.890625 4.75 -34.890625 Z M 4.75 -34.890625 "/></g></g></g><g fill="#ffffff" fill-opacity="1"><g transform="translate(229.828758, 82.179598)"><g><path d="M 21.109375 -39.078125 C 25.191406 -39.078125 27.234375 -36.6875 27.234375 -31.90625 C 27.234375 -29.164062 26.316406 -26.289062 24.484375 -23.28125 C 21.367188 -18.289062 17.234375 -15.796875 12.078125 -15.796875 C 11.273438 -15.796875 10.601562 -15.925781 10.0625 -16.1875 C 9.53125 -16.457031 9.128906 -16.863281 8.859375 -17.40625 C 12.671875 -17.40625 16.160156 -19.601562 19.328125 -24 C 21.910156 -27.550781 23.203125 -30.800781 23.203125 -33.75 C 23.203125 -35.957031 22.316406 -37.0625 20.546875 -37.0625 C 16.992188 -37.0625 13.6875 -34.296875 10.625 -28.765625 C 7.351562 -22.742188 5.71875 -16.566406 5.71875 -10.234375 C 5.71875 -4.859375 7.25 -1.632812 10.3125 -0.5625 C 10.90625 -0.34375 11.65625 -0.234375 12.5625 -0.234375 C 13.476562 -0.234375 14.445312 -0.460938 15.46875 -0.921875 C 16.488281 -1.378906 17.347656 -1.929688 18.046875 -2.578125 C 19.441406 -3.867188 20.59375 -5.289062 21.5 -6.84375 C 21.71875 -7.28125 22.125 -7.5 22.71875 -7.5 C 23.6875 -7.5 24.140625 -7.335938 24.078125 -7.015625 C 23.921875 -6.421875 23.316406 -5.425781 22.265625 -4.03125 C 21.222656 -2.632812 20.257812 -1.519531 19.375 -0.6875 C 18.488281 0.144531 17.332031 0.894531 15.90625 1.5625 C 14.488281 2.238281 13.050781 2.578125 11.59375 2.578125 C 5.90625 2.578125 2.28125 -0.109375 0.71875 -5.484375 C 0.238281 -7.304688 0 -9.1875 0 -11.125 C 0 -14.71875 0.832031 -18.632812 2.5 -22.875 C 5.125 -29.320312 8.75 -33.96875 13.375 -36.8125 C 15.894531 -38.320312 18.472656 -39.078125 21.109375 -39.078125 Z M 21.109375 -39.078125 "/></g></g></g><g fill="#ffffff" fill-opacity="1"><g transform="translate(261.166387, 82.179598)"><g/></g></g><g fill="#ffffff" fill-opacity="1"><g transform="translate(282.675739, 82.179598)"><g><path d="M 63.71875 -1.859375 C 63.71875 5.453125 65.382812 9.109375 68.71875 9.109375 C 70.863281 9.109375 72.660156 7.519531 74.109375 4.34375 C 74.429688 3.8125 74.914062 3.648438 75.5625 3.859375 C 75.832031 3.972656 75.898438 4.203125 75.765625 4.546875 C 75.628906 4.898438 75.425781 5.332031 75.15625 5.84375 C 74.894531 6.351562 74.414062 7.144531 73.71875 8.21875 C 72.101562 10.582031 70.25 11.765625 68.15625 11.765625 C 61.65625 11.765625 58.40625 6.609375 58.40625 -3.703125 C 58.40625 -15.304688 62.515625 -33.429688 70.734375 -58.078125 C 70.941406 -58.722656 70.816406 -59.046875 70.359375 -59.046875 C 69.910156 -59.046875 69.414062 -58.804688 68.875 -58.328125 C 66.03125 -55.640625 63.117188 -52.039062 60.140625 -47.53125 C 57.160156 -43.019531 54.539062 -38.457031 52.28125 -33.84375 C 48.3125 -25.832031 45.382812 -19.171875 43.5 -13.859375 C 40.976562 -6.390625 38.75 -2.65625 36.8125 -2.65625 C 35.6875 -2.65625 35.125 -3.21875 35.125 -4.34375 C 35.125 -4.40625 35.148438 -4.460938 35.203125 -4.515625 C 41.921875 -28.835938 45.28125 -44.117188 45.28125 -50.359375 C 45.28125 -53.148438 44.660156 -54.546875 43.421875 -54.546875 C 40.953125 -54.546875 37.054688 -49.9375 31.734375 -40.71875 C 26.421875 -31.507812 22.421875 -22.285156 19.734375 -13.046875 C 16.515625 -1.929688 13.671875 3.625 11.203125 3.625 C 10.066406 3.625 9.5 3.035156 9.5 1.859375 C 9.550781 1.691406 9.710938 1.234375 9.984375 0.484375 C 10.253906 -0.265625 10.601562 -1.378906 11.03125 -2.859375 C 11.457031 -4.335938 12.140625 -6.671875 13.078125 -9.859375 C 14.023438 -13.054688 14.820312 -16.160156 15.46875 -19.171875 C 17.613281 -29.160156 18.6875 -36.359375 18.6875 -40.765625 C 18.6875 -43.128906 18.523438 -45.476562 18.203125 -47.8125 C 17.878906 -50.144531 17.070312 -52.035156 15.78125 -53.484375 C 14.5 -54.941406 12.8125 -55.671875 10.71875 -55.671875 C 7.4375 -55.671875 5.125 -54.300781 3.78125 -51.5625 C 3.351562 -50.59375 3.140625 -49.769531 3.140625 -49.09375 C 3.140625 -48.425781 3.328125 -48.09375 3.703125 -48.09375 C 3.546875 -47.34375 2.898438 -46.96875 1.765625 -46.96875 C 0.640625 -46.96875 0.078125 -47.691406 0.078125 -49.140625 C 0.078125 -51.347656 1.191406 -53.3125 3.421875 -55.03125 C 5.648438 -56.75 8.1875 -57.609375 11.03125 -57.609375 C 13.875 -57.609375 16.140625 -56.894531 17.828125 -55.46875 C 19.523438 -54.039062 20.75 -52.144531 21.5 -49.78125 C 22.738281 -45.863281 23.359375 -41.625 23.359375 -37.0625 C 23.359375 -35.34375 23.25 -33.566406 23.03125 -31.734375 L 23.84375 -31.734375 C 32.382812 -49.035156 39.554688 -57.6875 45.359375 -57.6875 C 48.679688 -57.6875 50.34375 -54.835938 50.34375 -49.140625 C 50.34375 -46.398438 49.726562 -41.59375 48.5 -34.71875 L 49.21875 -34.71875 C 59.050781 -53.25 67.109375 -62.515625 73.390625 -62.515625 C 75.804688 -62.515625 77.015625 -61.171875 77.015625 -58.484375 C 75.347656 -54.347656 73.492188 -48.707031 71.453125 -41.5625 C 66.296875 -23.894531 63.71875 -10.660156 63.71875 -1.859375 Z M 63.71875 -1.859375 "/></g></g></g><g fill="#ffffff" fill-opacity="1"><g transform="translate(360.657264, 82.179598)"><g><path d="M 21.109375 -39.078125 C 25.191406 -39.078125 27.234375 -36.6875 27.234375 -31.90625 C 27.234375 -29.164062 26.316406 -26.289062 24.484375 -23.28125 C 21.367188 -18.289062 17.234375 -15.796875 12.078125 -15.796875 C 11.273438 -15.796875 10.601562 -15.925781 10.0625 -16.1875 C 9.53125 -16.457031 9.128906 -16.863281 8.859375 -17.40625 C 12.671875 -17.40625 16.160156 -19.601562 19.328125 -24 C 21.910156 -27.550781 23.203125 -30.800781 23.203125 -33.75 C 23.203125 -35.957031 22.316406 -37.0625 20.546875 -37.0625 C 16.992188 -37.0625 13.6875 -34.296875 10.625 -28.765625 C 7.351562 -22.742188 5.71875 -16.566406 5.71875 -10.234375 C 5.71875 -4.859375 7.25 -1.632812 10.3125 -0.5625 C 10.90625 -0.34375 11.65625 -0.234375 12.5625 -0.234375 C 13.476562 -0.234375 14.445312 -0.460938 15.46875 -0.921875 C 16.488281 -1.378906 17.347656 -1.929688 18.046875 -2.578125 C 19.441406 -3.867188 20.59375 -5.289062 21.5 -6.84375 C 21.71875 -7.28125 22.125 -7.5 22.71875 -7.5 C 23.6875 -7.5 24.140625 -7.335938 24.078125 -7.015625 C 23.921875 -6.421875 23.316406 -5.425781 22.265625 -4.03125 C 21.222656 -2.632812 20.257812 -1.519531 19.375 -0.6875 C 18.488281 0.144531 17.332031 0.894531 15.90625 1.5625 C 14.488281 2.238281 13.050781 2.578125 11.59375 2.578125 C 5.90625 2.578125 2.28125 -0.109375 0.71875 -5.484375 C 0.238281 -7.304688 0 -9.1875 0 -11.125 C 0 -14.71875 0.832031 -18.632812 2.5 -22.875 C 5.125 -29.320312 8.75 -33.96875 13.375 -36.8125 C 15.894531 -38.320312 18.472656 -39.078125 21.109375 -39.078125 Z M 21.109375 -39.078125 "/></g></g></g><g fill="#ffffff" fill-opacity="1"><g transform="translate(391.994871, 82.179598)"><g><path d="M 19.734375 -9.828125 C 19.734375 -16.429688 20.941406 -24.785156 23.359375 -34.890625 C 23.523438 -35.421875 23.363281 -35.660156 22.875 -35.609375 C 22.5 -35.554688 22.148438 -35.394531 21.828125 -35.125 C 19.460938 -33.132812 16.859375 -29.453125 14.015625 -24.078125 C 11.171875 -18.710938 8.890625 -13.8125 7.171875 -9.375 C 5.453125 -4.945312 4.59375 -2.359375 4.59375 -1.609375 C 4.59375 -0.960938 4.191406 -0.640625 3.390625 -0.640625 C 1.773438 -0.640625 0.96875 -2.765625 0.96875 -7.015625 C 0.96875 -15.066406 1.769531 -22.328125 3.375 -28.796875 C 4.988281 -35.273438 6.953125 -38.515625 9.265625 -38.515625 C 10.285156 -38.515625 10.796875 -37.945312 10.796875 -36.8125 C 8.328125 -29.03125 6.554688 -21.03125 5.484375 -12.8125 L 6.203125 -12.8125 C 13.296875 -30.53125 19.820312 -39.390625 25.78125 -39.390625 C 28.351562 -39.390625 29.640625 -38.128906 29.640625 -35.609375 C 27.117188 -28.085938 25.296875 -20.675781 24.171875 -13.375 L 24.8125 -13.375 C 26.582031 -17.132812 28.367188 -20.554688 30.171875 -23.640625 C 31.972656 -26.734375 34.082031 -29.609375 36.5 -32.265625 C 38.914062 -34.921875 41.085938 -36.25 43.015625 -36.25 C 45.597656 -36.25 46.890625 -35.015625 46.890625 -32.546875 C 44.097656 -23.253906 42.703125 -14.203125 42.703125 -5.390625 C 42.703125 0.296875 43.5625 3.140625 45.28125 3.140625 C 45.863281 3.140625 46.453125 2.882812 47.046875 2.375 C 47.640625 1.863281 48.039062 1.609375 48.25 1.609375 C 49.007812 1.609375 48.984375 2.203125 48.171875 3.390625 C 47.960938 3.765625 47.492188 4.269531 46.765625 4.90625 C 46.035156 5.550781 45.320312 5.875 44.625 5.875 C 42.53125 5.875 40.90625 4.410156 39.75 1.484375 C 38.601562 -1.441406 38.03125 -5.238281 38.03125 -9.90625 C 38.03125 -18.125 38.890625 -25.347656 40.609375 -31.578125 C 40.710938 -31.953125 40.578125 -32.140625 40.203125 -32.140625 C 39.878906 -32.085938 39.554688 -31.925781 39.234375 -31.65625 C 36.171875 -29.03125 32.757812 -24.15625 29 -17.03125 C 25.238281 -9.914062 23.359375 -5.71875 23.359375 -4.4375 C 23.359375 -3.789062 22.929688 -3.46875 22.078125 -3.46875 C 20.515625 -3.46875 19.734375 -5.585938 19.734375 -9.828125 Z M 19.734375 -9.828125 "/></g></g></g><g fill="#ffffff" fill-opacity="1"><g transform="translate(445.566905, 82.179598)"><g><path d="M 9.90625 0.71875 C 3.300781 0.71875 0 -3.816406 0 -12.890625 C 0 -17.992188 1.285156 -23.097656 3.859375 -28.203125 C 7.140625 -34.640625 11.035156 -37.859375 15.546875 -37.859375 C 16.191406 -37.859375 16.726562 -37.695312 17.15625 -37.375 C 17.582031 -37.050781 17.878906 -36.570312 18.046875 -35.9375 C 14.660156 -35.9375 11.734375 -33.222656 9.265625 -27.796875 C 6.796875 -22.367188 5.5625 -17.023438 5.5625 -11.765625 C 5.5625 -5.367188 7.304688 -2.171875 10.796875 -2.171875 C 12.785156 -2.171875 14.851562 -3.6875 17 -6.71875 C 19.144531 -9.757812 20.925781 -13.75 22.34375 -18.6875 C 23.769531 -23.632812 24.484375 -28.601562 24.484375 -33.59375 L 24.484375 -34.5625 C 22.816406 -35.632812 21.445312 -36.972656 20.375 -38.578125 C 19.300781 -40.191406 18.765625 -41.375 18.765625 -42.125 C 18.765625 -42.882812 19.097656 -43.597656 19.765625 -44.265625 C 20.441406 -44.941406 21.128906 -45.28125 21.828125 -45.28125 C 22.847656 -45.28125 23.84375 -44.363281 24.8125 -42.53125 C 25.78125 -40.707031 26.453125 -38.640625 26.828125 -36.328125 C 28.492188 -35.203125 29.957031 -34.640625 31.21875 -34.640625 C 32.476562 -34.640625 33.484375 -34.851562 34.234375 -35.28125 C 34.234375 -34.53125 33.960938 -33.859375 33.421875 -33.265625 C 32.890625 -32.679688 32.054688 -32.390625 30.921875 -32.390625 C 29.796875 -32.390625 28.507812 -32.65625 27.0625 -33.1875 C 27.007812 -28.03125 26.226562 -22.847656 24.71875 -17.640625 C 23.21875 -12.429688 21.125 -8.066406 18.4375 -4.546875 C 15.757812 -1.035156 12.914062 0.71875 9.90625 0.71875 Z M 9.90625 0.71875 "/></g></g></g><g fill="#ffffff" fill-opacity="1"><g transform="translate(478.837945, 82.179598)"><g><path d="M 25.625 -23.125 C 23.582031 -23.125 22.5625 -25.351562 22.5625 -29.8125 C 22.5625 -32.332031 23.039062 -34.691406 24 -36.890625 C 20.351562 -33.722656 16.273438 -27.828125 11.765625 -19.203125 C 7.253906 -10.585938 5 -4.96875 5 -2.34375 C 5 -1.695312 4.566406 -1.375 3.703125 -1.375 C 2.148438 -1.375 1.375 -3.492188 1.375 -7.734375 C 1.375 -15.734375 2.175781 -22.984375 3.78125 -29.484375 C 5.394531 -35.984375 7.359375 -39.234375 9.671875 -39.234375 C 10.691406 -39.234375 11.203125 -38.644531 11.203125 -37.46875 C 8.734375 -29.625 6.957031 -21.59375 5.875 -13.375 L 6.4375 -13.375 C 10.789062 -23.414062 15.597656 -31.253906 20.859375 -36.890625 C 23.867188 -40.117188 26.609375 -41.734375 29.078125 -41.734375 C 29.617188 -41.734375 30.0625 -41.570312 30.40625 -41.25 C 30.757812 -40.925781 30.9375 -40.523438 30.9375 -40.046875 C 30.5625 -39.660156 30.101562 -39.09375 29.5625 -38.34375 C 29.03125 -37.59375 28.304688 -35.804688 27.390625 -32.984375 C 26.472656 -30.171875 26.015625 -27.097656 26.015625 -23.765625 C 26.015625 -23.335938 25.882812 -23.125 25.625 -23.125 Z M 25.625 -23.125 "/></g></g></g><g fill="#ffffff" fill-opacity="1"><g transform="translate(509.692221, 82.179598)"><g><path d="M 2.09375 -6.84375 C 2.09375 -14.789062 2.910156 -21.878906 4.546875 -28.109375 C 6.191406 -34.347656 8.273438 -37.46875 10.796875 -37.46875 C 12.023438 -37.46875 12.640625 -36.796875 12.640625 -35.453125 C 12.109375 -34.054688 11.4375 -32.203125 10.625 -29.890625 C 9.820312 -27.578125 8.765625 -23.398438 7.453125 -17.359375 C 6.140625 -11.316406 5.484375 -5.929688 5.484375 -1.203125 C 5.484375 -0.453125 5.078125 -0.078125 4.265625 -0.078125 C 2.816406 -0.078125 2.09375 -2.332031 2.09375 -6.84375 Z M 12.890625 -45.03125 C 11.765625 -45.03125 11.203125 -46.101562 11.203125 -48.25 C 11.203125 -49.539062 11.550781 -50.894531 12.25 -52.3125 C 12.945312 -53.738281 13.9375 -54.453125 15.21875 -54.453125 C 16.300781 -54.453125 16.84375 -53.835938 16.84375 -52.609375 C 16.84375 -51.367188 15.847656 -49.300781 13.859375 -46.40625 Z M 12.890625 -45.03125 "/></g></g></g><g fill="#ffffff" fill-opacity="1"><g transform="translate(527.254187, 82.179598)"><g><path d="M 21.109375 -39.078125 C 25.191406 -39.078125 27.234375 -36.6875 27.234375 -31.90625 C 27.234375 -29.164062 26.316406 -26.289062 24.484375 -23.28125 C 21.367188 -18.289062 17.234375 -15.796875 12.078125 -15.796875 C 11.273438 -15.796875 10.601562 -15.925781 10.0625 -16.1875 C 9.53125 -16.457031 9.128906 -16.863281 8.859375 -17.40625 C 12.671875 -17.40625 16.160156 -19.601562 19.328125 -24 C 21.910156 -27.550781 23.203125 -30.800781 23.203125 -33.75 C 23.203125 -35.957031 22.316406 -37.0625 20.546875 -37.0625 C 16.992188 -37.0625 13.6875 -34.296875 10.625 -28.765625 C 7.351562 -22.742188 5.71875 -16.566406 5.71875 -10.234375 C 5.71875 -4.859375 7.25 -1.632812 10.3125 -0.5625 C 10.90625 -0.34375 11.65625 -0.234375 12.5625 -0.234375 C 13.476562 -0.234375 14.445312 -0.460938 15.46875 -0.921875 C 16.488281 -1.378906 17.347656 -1.929688 18.046875 -2.578125 C 19.441406 -3.867188 20.59375 -5.289062 21.5 -6.84375 C 21.71875 -7.28125 22.125 -7.5 22.71875 -7.5 C 23.6875 -7.5 24.140625 -7.335938 24.078125 -7.015625 C 23.921875 -6.421875 23.316406 -5.425781 22.265625 -4.03125 C 21.222656 -2.632812 20.257812 -1.519531 19.375 -0.6875 C 18.488281 0.144531 17.332031 0.894531 15.90625 1.5625 C 14.488281 2.238281 13.050781 2.578125 11.59375 2.578125 C 5.90625 2.578125 2.28125 -0.109375 0.71875 -5.484375 C 0.238281 -7.304688 0 -9.1875 0 -11.125 C 0 -14.71875 0.832031 -18.632812 2.5 -22.875 C 5.125 -29.320312 8.75 -33.96875 13.375 -36.8125 C 15.894531 -38.320312 18.472656 -39.078125 21.109375 -39.078125 Z M 21.109375 -39.078125 "/></g></g></g><g fill="#ffffff" fill-opacity="1"><g transform="translate(558.591816, 82.179598)"><g><path d="M 5.796875 -2.734375 C 5.796875 1.023438 7.003906 2.90625 9.421875 2.90625 C 11.679688 2.90625 13.789062 1.050781 15.75 -2.65625 C 17.707031 -6.363281 18.6875 -11.035156 18.6875 -16.671875 C 18.6875 -19.410156 18.1875 -23.273438 17.1875 -28.265625 C 16.195312 -33.265625 15.703125 -36.53125 15.703125 -38.0625 C 15.703125 -39.59375 15.757812 -40.601562 15.875 -41.09375 C 15.175781 -39.957031 13.160156 -36.207031 9.828125 -29.84375 C 6.492188 -23.476562 3.539062 -18.445312 0.96875 -14.75 C 0.75 -14.53125 0.453125 -14.457031 0.078125 -14.53125 C -0.296875 -14.613281 -0.601562 -14.773438 -0.84375 -15.015625 C -1.082031 -15.265625 -1.203125 -15.441406 -1.203125 -15.546875 C -1.203125 -15.648438 -1.175781 -15.734375 -1.125 -15.796875 C 1.394531 -19.441406 4.332031 -24.472656 7.6875 -30.890625 C 11.039062 -37.304688 13.847656 -42.097656 16.109375 -45.265625 C 18.367188 -48.441406 20.597656 -50.03125 22.796875 -50.03125 C 23.921875 -50.03125 24.484375 -49.546875 24.484375 -48.578125 C 24.484375 -47.929688 24.03125 -47.070312 23.125 -46 C 20.21875 -42.726562 18.765625 -39.375 18.765625 -35.9375 C 18.765625 -33.894531 19.539062 -29.957031 21.09375 -24.125 C 22.65625 -18.300781 23.4375 -14.070312 23.4375 -11.4375 C 23.4375 -6.707031 22.117188 -2.691406 19.484375 0.609375 C 16.859375 3.910156 13.878906 5.5625 10.546875 5.5625 C 5.828125 5.5625 3.46875 2.847656 3.46875 -2.578125 C 3.46875 -6.660156 4.710938 -10.929688 7.203125 -15.390625 C 9.703125 -19.847656 12.210938 -22.851562 14.734375 -24.40625 C 15.222656 -24.726562 15.535156 -24.539062 15.671875 -23.84375 C 15.804688 -23.144531 15.710938 -22.691406 15.390625 -22.484375 C 12.535156 -20.867188 10.0625 -17.429688 7.96875 -12.171875 C 6.519531 -8.460938 5.796875 -5.316406 5.796875 -2.734375 Z M 5.796875 -2.734375 "/></g></g></g></svg>