<svg xmlns="http://www.w3.org/2000/svg" xmlns:xlink="http://www.w3.org/1999/xlink" width="1000" zoomAndPan="magnify" viewBox="0 0 750 119.999999" height="160" preserveAspectRatio="xMidYMid meet" version="1.0"><defs><g/></defs><g fill="#ffffff" fill-opacity="1"><g transform="translate(0.105473, 82.179598)"><g><path d="M 63.71875 -1.859375 C 63.71875 5.453125 65.382812 9.109375 68.71875 9.109375 C 70.863281 9.109375 72.660156 7.519531 74.109375 4.34375 C 74.429688 3.8125 74.914062 3.648438 75.5625 3.859375 C 75.832031 3.972656 75.898438 4.203125 75.765625 4.546875 C 75.628906 4.898438 75.425781 5.332031 75.15625 5.84375 C 74.894531 6.351562 74.414062 7.144531 73.71875 8.21875 C 72.101562 10.582031 70.25 11.765625 68.15625 11.765625 C 61.65625 11.765625 58.40625 6.609375 58.40625 -3.703125 C 58.40625 -15.304688 62.515625 -33.429688 70.734375 -58.078125 C 70.941406 -58.722656 70.816406 -59.046875 70.359375 -59.046875 C 69.910156 -59.046875 69.414062 -58.804688 68.875 -58.328125 C 66.03125 -55.640625 63.117188 -52.039062 60.140625 -47.53125 C 57.160156 -43.019531 54.539062 -38.457031 52.28125 -33.84375 C 48.3125 -25.832031 45.382812 -19.171875 43.5 -13.859375 C 40.976562 -6.390625 38.75 -2.65625 36.8125 -2.65625 C 35.6875 -2.65625 35.125 -3.21875 35.125 -4.34375 C 35.125 -4.40625 35.148438 -4.460938 35.203125 -4.515625 C 41.921875 -28.835938 45.28125 -44.117188 45.28125 -50.359375 C 45.28125 -53.148438 44.660156 -54.546875 43.421875 -54.546875 C 40.953125 -54.546875 37.054688 -49.9375 31.734375 -40.71875 C 26.421875 -31.507812 22.421875 -22.285156 19.734375 -13.046875 C 16.515625 -1.929688 13.671875 3.625 11.203125 3.625 C 10.066406 3.625 9.5 3.035156 9.5 1.859375 C 9.550781 1.691406 9.710938 1.234375 9.984375 0.484375 C 10.253906 -0.265625 10.601562 -1.378906 11.03125 -2.859375 C 11.457031 -4.335938 12.140625 -6.671875 13.078125 -9.859375 C 14.023438 -13.054688 14.820312 -16.160156 15.46875 -19.171875 C 17.613281 -29.160156 18.6875 -36.359375 18.6875 -40.765625 C 18.6875 -43.128906 18.523438 -45.476562 18.203125 -47.8125 C 17.878906 -50.144531 17.070312 -52.035156 15.78125 -53.484375 C 14.5 -54.941406 12.8125 -55.671875 10.71875 -55.671875 C 7.4375 -55.671875 5.125 -54.300781 3.78125 -51.5625 C 3.351562 -50.59375 3.140625 -49.769531 3.140625 -49.09375 C 3.140625 -48.425781 3.328125 -48.09375 3.703125 -48.09375 C 3.546875 -47.34375 2.898438 -46.96875 1.765625 -46.96875 C 0.640625 -46.96875 0.078125 -47.691406 0.078125 -49.140625 C 0.078125 -51.347656 1.191406 -53.3125 3.421875 -55.03125 C 5.648438 -56.75 8.1875 -57.609375 11.03125 -57.609375 C 13.875 -57.609375 16.140625 -56.894531 17.828125 -55.46875 C 19.523438 -54.039062 20.75 -52.144531 21.5 -49.78125 C 22.738281 -45.863281 23.359375 -41.625 23.359375 -37.0625 C 23.359375 -35.34375 23.25 -33.566406 23.03125 -31.734375 L 23.84375 -31.734375 C 32.382812 -49.035156 39.554688 -57.6875 45.359375 -57.6875 C 48.679688 -57.6875 50.34375 -54.835938 50.34375 -49.140625 C 50.34375 -46.398438 49.726562 -41.59375 48.5 -34.71875 L 49.21875 -34.71875 C 59.050781 -53.25 67.109375 -62.515625 73.390625 -62.515625 C 75.804688 -62.515625 77.015625 -61.171875 77.015625 -58.484375 C 75.347656 -54.347656 73.492188 -48.707031 71.453125 -41.5625 C 66.296875 -23.894531 63.71875 -10.660156 63.71875 -1.859375 Z M 63.71875 -1.859375 "/></g></g></g><g fill="#ffffff" fill-opacity="1"><g transform="translate(78.086998, 82.179598)"><g><path d="M 21.109375 -39.078125 C 25.191406 -39.078125 27.234375 -36.6875 27.234375 -31.90625 C 27.234375 -29.164062 26.316406 -26.289062 24.484375 -23.28125 C 21.367188 -18.289062 17.234375 -15.796875 12.078125 -15.796875 C 11.273438 -15.796875 10.601562 -15.925781 10.0625 -16.1875 C 9.53125 -16.457031 9.128906 -16.863281 8.859375 -17.40625 C 12.671875 -17.40625 16.160156 -19.601562 19.328125 -24 C 21.910156 -27.550781 23.203125 -30.800781 23.203125 -33.75 C 23.203125 -35.957031 22.316406 -37.0625 20.546875 -37.0625 C 16.992188 -37.0625 13.6875 -34.296875 10.625 -28.765625 C 7.351562 -22.742188 5.71875 -16.566406 5.71875 -10.234375 C 5.71875 -4.859375 7.25 -1.632812 10.3125 -0.5625 C 10.90625 -0.34375 11.65625 -0.234375 12.5625 -0.234375 C 13.476562 -0.234375 14.445312 -0.460938 15.46875 -0.921875 C 16.488281 -1.378906 17.347656 -1.929688 18.046875 -2.578125 C 19.441406 -3.867188 20.59375 -5.289062 21.5 -6.84375 C 21.71875 -7.28125 22.125 -7.5 22.71875 -7.5 C 23.6875 -7.5 24.140625 -7.335938 24.078125 -7.015625 C 23.921875 -6.421875 23.316406 -5.425781 22.265625 -4.03125 C 21.222656 -2.632812 20.257812 -1.519531 19.375 -0.6875 C 18.488281 0.144531 17.332031 0.894531 15.90625 1.5625 C 14.488281 2.238281 13.050781 2.578125 11.59375 2.578125 C 5.90625 2.578125 2.28125 -0.109375 0.71875 -5.484375 C 0.238281 -7.304688 0 -9.1875 0 -11.125 C 0 -14.71875 0.832031 -18.632812 2.5 -22.875 C 5.125 -29.320312 8.75 -33.96875 13.375 -36.8125 C 15.894531 -38.320312 18.472656 -39.078125 21.109375 -39.078125 Z M 21.109375 -39.078125 "/></g></g></g><g fill="#ffffff" fill-opacity="1"><g transform="translate(109.424616, 82.179598)"><g><path d="M 19.734375 -9.828125 C 19.734375 -16.429688 20.941406 -24.785156 23.359375 -34.890625 C 23.523438 -35.421875 23.363281 -35.660156 22.875 -35.609375 C 22.5 -35.554688 22.148438 -35.394531 21.828125 -35.125 C 19.460938 -33.132812 16.859375 -29.453125 14.015625 -24.078125 C 11.171875 -18.710938 8.890625 -13.8125 7.171875 -9.375 C 5.453125 -4.945312 4.59375 -2.359375 4.59375 -1.609375 C 4.59375 -0.960938 4.191406 -0.640625 3.390625 -0.640625 C 1.773438 -0.640625 0.96875 -2.765625 0.96875 -7.015625 C 0.96875 -15.066406 1.769531 -22.328125 3.375 -28.796875 C 4.988281 -35.273438 6.953125 -38.515625 9.265625 -38.515625 C 10.285156 -38.515625 10.796875 -37.945312 10.796875 -36.8125 C 8.328125 -29.03125 6.554688 -21.03125 5.484375 -12.8125 L 6.203125 -12.8125 C 13.296875 -30.53125 19.820312 -39.390625 25.78125 -39.390625 C 28.351562 -39.390625 29.640625 -38.128906 29.640625 -35.609375 C 27.117188 -28.085938 25.296875 -20.675781 24.171875 -13.375 L 24.8125 -13.375 C 26.582031 -17.132812 28.367188 -20.554688 30.171875 -23.640625 C 31.972656 -26.734375 34.082031 -29.609375 36.5 -32.265625 C 38.914062 -34.921875 41.085938 -36.25 43.015625 -36.25 C 45.597656 -36.25 46.890625 -35.015625 46.890625 -32.546875 C 44.097656 -23.253906 42.703125 -14.203125 42.703125 -5.390625 C 42.703125 0.296875 43.5625 3.140625 45.28125 3.140625 C 45.863281 3.140625 46.453125 2.882812 47.046875 2.375 C 47.640625 1.863281 48.039062 1.609375 48.25 1.609375 C 49.007812 1.609375 48.984375 2.203125 48.171875 3.390625 C 47.960938 3.765625 47.492188 4.269531 46.765625 4.90625 C 46.035156 5.550781 45.320312 5.875 44.625 5.875 C 42.53125 5.875 40.90625 4.410156 39.75 1.484375 C 38.601562 -1.441406 38.03125 -5.238281 38.03125 -9.90625 C 38.03125 -18.125 38.890625 -25.347656 40.609375 -31.578125 C 40.710938 -31.953125 40.578125 -32.140625 40.203125 -32.140625 C 39.878906 -32.085938 39.554688 -31.925781 39.234375 -31.65625 C 36.171875 -29.03125 32.757812 -24.15625 29 -17.03125 C 25.238281 -9.914062 23.359375 -5.71875 23.359375 -4.4375 C 23.359375 -3.789062 22.929688 -3.46875 22.078125 -3.46875 C 20.515625 -3.46875 19.734375 -5.585938 19.734375 -9.828125 Z M 19.734375 -9.828125 "/></g></g></g><g fill="#ffffff" fill-opacity="1"><g transform="translate(162.996639, 82.179598)"><g><path d="M 9.90625 0.71875 C 3.300781 0.71875 0 -3.816406 0 -12.890625 C 0 -17.992188 1.285156 -23.097656 3.859375 -28.203125 C 7.140625 -34.640625 11.035156 -37.859375 15.546875 -37.859375 C 16.191406 -37.859375 16.726562 -37.695312 17.15625 -37.375 C 17.582031 -37.050781 17.878906 -36.570312 18.046875 -35.9375 C 14.660156 -35.9375 11.734375 -33.222656 9.265625 -27.796875 C 6.796875 -22.367188 5.5625 -17.023438 5.5625 -11.765625 C 5.5625 -5.367188 7.304688 -2.171875 10.796875 -2.171875 C 12.785156 -2.171875 14.851562 -3.6875 17 -6.71875 C 19.144531 -9.757812 20.925781 -13.75 22.34375 -18.6875 C 23.769531 -23.632812 24.484375 -28.601562 24.484375 -33.59375 L 24.484375 -34.5625 C 22.816406 -35.632812 21.445312 -36.972656 20.375 -38.578125 C 19.300781 -40.191406 18.765625 -41.375 18.765625 -42.125 C 18.765625 -42.882812 19.097656 -43.597656 19.765625 -44.265625 C 20.441406 -44.941406 21.128906 -45.28125 21.828125 -45.28125 C 22.847656 -45.28125 23.84375 -44.363281 24.8125 -42.53125 C 25.78125 -40.707031 26.453125 -38.640625 26.828125 -36.328125 C 28.492188 -35.203125 29.957031 -34.640625 31.21875 -34.640625 C 32.476562 -34.640625 33.484375 -34.851562 34.234375 -35.28125 C 34.234375 -34.53125 33.960938 -33.859375 33.421875 -33.265625 C 32.890625 -32.679688 32.054688 -32.390625 30.921875 -32.390625 C 29.796875 -32.390625 28.507812 -32.65625 27.0625 -33.1875 C 27.007812 -28.03125 26.226562 -22.847656 24.71875 -17.640625 C 23.21875 -12.429688 21.125 -8.066406 18.4375 -4.546875 C 15.757812 -1.035156 12.914062 0.71875 9.90625 0.71875 Z M 9.90625 0.71875 "/></g></g></g><g fill="#ffffff" fill-opacity="1"><g transform="translate(196.267679, 82.179598)"><g><path d="M 25.625 -23.125 C 23.582031 -23.125 22.5625 -25.351562 22.5625 -29.8125 C 22.5625 -32.332031 23.039062 -34.691406 24 -36.890625 C 20.351562 -33.722656 16.273438 -27.828125 11.765625 -19.203125 C 7.253906 -10.585938 5 -4.96875 5 -2.34375 C 5 -1.695312 4.566406 -1.375 3.703125 -1.375 C 2.148438 -1.375 1.375 -3.492188 1.375 -7.734375 C 1.375 -15.734375 2.175781 -22.984375 3.78125 -29.484375 C 5.394531 -35.984375 7.359375 -39.234375 9.671875 -39.234375 C 10.691406 -39.234375 11.203125 -38.644531 11.203125 -37.46875 C 8.734375 -29.625 6.957031 -21.59375 5.875 -13.375 L 6.4375 -13.375 C 10.789062 -23.414062 15.597656 -31.253906 20.859375 -36.890625 C 23.867188 -40.117188 26.609375 -41.734375 29.078125 -41.734375 C 29.617188 -41.734375 30.0625 -41.570312 30.40625 -41.25 C 30.757812 -40.925781 30.9375 -40.523438 30.9375 -40.046875 C 30.5625 -39.660156 30.101562 -39.09375 29.5625 -38.34375 C 29.03125 -37.59375 28.304688 -35.804688 27.390625 -32.984375 C 26.472656 -30.171875 26.015625 -27.097656 26.015625 -23.765625 C 26.015625 -23.335938 25.882812 -23.125 25.625 -23.125 Z M 25.625 -23.125 "/></g></g></g><g fill="#ffffff" fill-opacity="1"><g transform="translate(227.121955, 82.179598)"><g><path d="M 2.09375 -6.84375 C 2.09375 -14.789062 2.910156 -21.878906 4.546875 -28.109375 C 6.191406 -34.347656 8.273438 -37.46875 10.796875 -37.46875 C 12.023438 -37.46875 12.640625 -36.796875 12.640625 -35.453125 C 12.109375 -34.054688 11.4375 -32.203125 10.625 -29.890625 C 9.820312 -27.578125 8.765625 -23.398438 7.453125 -17.359375 C 6.140625 -11.316406 5.484375 -5.929688 5.484375 -1.203125 C 5.484375 -0.453125 5.078125 -0.078125 4.265625 -0.078125 C 2.816406 -0.078125 2.09375 -2.332031 2.09375 -6.84375 Z M 12.890625 -45.03125 C 11.765625 -45.03125 11.203125 -46.101562 11.203125 -48.25 C 11.203125 -49.539062 11.550781 -50.894531 12.25 -52.3125 C 12.945312 -53.738281 13.9375 -54.453125 15.21875 -54.453125 C 16.300781 -54.453125 16.84375 -53.835938 16.84375 -52.609375 C 16.84375 -51.367188 15.847656 -49.300781 13.859375 -46.40625 Z M 12.890625 -45.03125 "/></g></g></g><g fill="#ffffff" fill-opacity="1"><g transform="translate(244.683921, 82.179598)"><g><path d="M 21.109375 -39.078125 C 25.191406 -39.078125 27.234375 -36.6875 27.234375 -31.90625 C 27.234375 -29.164062 26.316406 -26.289062 24.484375 -23.28125 C 21.367188 -18.289062 17.234375 -15.796875 12.078125 -15.796875 C 11.273438 -15.796875 10.601562 -15.925781 10.0625 -16.1875 C 9.53125 -16.457031 9.128906 -16.863281 8.859375 -17.40625 C 12.671875 -17.40625 16.160156 -19.601562 19.328125 -24 C 21.910156 -27.550781 23.203125 -30.800781 23.203125 -33.75 C 23.203125 -35.957031 22.316406 -37.0625 20.546875 -37.0625 C 16.992188 -37.0625 13.6875 -34.296875 10.625 -28.765625 C 7.351562 -22.742188 5.71875 -16.566406 5.71875 -10.234375 C 5.71875 -4.859375 7.25 -1.632812 10.3125 -0.5625 C 10.90625 -0.34375 11.65625 -0.234375 12.5625 -0.234375 C 13.476562 -0.234375 14.445312 -0.460938 15.46875 -0.921875 C 16.488281 -1.378906 17.347656 -1.929688 18.046875 -2.578125 C 19.441406 -3.867188 20.59375 -5.289062 21.5 -6.84375 C 21.71875 -7.28125 22.125 -7.5 22.71875 -7.5 C 23.6875 -7.5 24.140625 -7.335938 24.078125 -7.015625 C 23.921875 -6.421875 23.316406 -5.425781 22.265625 -4.03125 C 21.222656 -2.632812 20.257812 -1.519531 19.375 -0.6875 C 18.488281 0.144531 17.332031 0.894531 15.90625 1.5625 C 14.488281 2.238281 13.050781 2.578125 11.59375 2.578125 C 5.90625 2.578125 2.28125 -0.109375 0.71875 -5.484375 C 0.238281 -7.304688 0 -9.1875 0 -11.125 C 0 -14.71875 0.832031 -18.632812 2.5 -22.875 C 5.125 -29.320312 8.75 -33.96875 13.375 -36.8125 C 15.894531 -38.320312 18.472656 -39.078125 21.109375 -39.078125 Z M 21.109375 -39.078125 "/></g></g></g><g fill="#ffffff" fill-opacity="1"><g transform="translate(276.02155, 82.179598)"><g><path d="M 5.796875 -2.734375 C 5.796875 1.023438 7.003906 2.90625 9.421875 2.90625 C 11.679688 2.90625 13.789062 1.050781 15.75 -2.65625 C 17.707031 -6.363281 18.6875 -11.035156 18.6875 -16.671875 C 18.6875 -19.410156 18.1875 -23.273438 17.1875 -28.265625 C 16.195312 -33.265625 15.703125 -36.53125 15.703125 -38.0625 C 15.703125 -39.59375 15.757812 -40.601562 15.875 -41.09375 C 15.175781 -39.957031 13.160156 -36.207031 9.828125 -29.84375 C 6.492188 -23.476562 3.539062 -18.445312 0.96875 -14.75 C 0.75 -14.53125 0.453125 -14.457031 0.078125 -14.53125 C -0.296875 -14.613281 -0.601562 -14.773438 -0.84375 -15.015625 C -1.082031 -15.265625 -1.203125 -15.441406 -1.203125 -15.546875 C -1.203125 -15.648438 -1.175781 -15.734375 -1.125 -15.796875 C 1.394531 -19.441406 4.332031 -24.472656 7.6875 -30.890625 C 11.039062 -37.304688 13.847656 -42.097656 16.109375 -45.265625 C 18.367188 -48.441406 20.597656 -50.03125 22.796875 -50.03125 C 23.921875 -50.03125 24.484375 -49.546875 24.484375 -48.578125 C 24.484375 -47.929688 24.03125 -47.070312 23.125 -46 C 20.21875 -42.726562 18.765625 -39.375 18.765625 -35.9375 C 18.765625 -33.894531 19.539062 -29.957031 21.09375 -24.125 C 22.65625 -18.300781 23.4375 -14.070312 23.4375 -11.4375 C 23.4375 -6.707031 22.117188 -2.691406 19.484375 0.609375 C 16.859375 3.910156 13.878906 5.5625 10.546875 5.5625 C 5.828125 5.5625 3.46875 2.847656 3.46875 -2.578125 C 3.46875 -6.660156 4.710938 -10.929688 7.203125 -15.390625 C 9.703125 -19.847656 12.210938 -22.851562 14.734375 -24.40625 C 15.222656 -24.726562 15.535156 -24.539062 15.671875 -23.84375 C 15.804688 -23.144531 15.710938 -22.691406 15.390625 -22.484375 C 12.535156 -20.867188 10.0625 -17.429688 7.96875 -12.171875 C 6.519531 -8.460938 5.796875 -5.316406 5.796875 -2.734375 Z M 5.796875 -2.734375 "/></g></g></g></svg>