<svg xmlns="http://www.w3.org/2000/svg" xmlns:xlink="http://www.w3.org/1999/xlink" width="1000" zoomAndPan="magnify" viewBox="0 0 750 119.999999" height="160" preserveAspectRatio="xMidYMid meet" version="1.0"><defs><g/></defs><g fill="#ffffff" fill-opacity="1"><g transform="translate(0.597661, 82.179598)"><g><path d="M 29.8125 1.125 C 27.175781 -1.394531 25.859375 -5.179688 25.859375 -10.234375 C 25.859375 -15.867188 27.710938 -21.695312 31.421875 -27.71875 C 33.460938 -31.039062 36.226562 -33.773438 39.71875 -35.921875 C 43.207031 -38.078125 47.019531 -39.15625 51.15625 -39.15625 C 52.976562 -39.15625 54.9375 -38.832031 57.03125 -38.1875 C 61.113281 -44.894531 64.441406 -49.753906 67.015625 -52.765625 C 69.597656 -55.773438 71.832031 -58.054688 73.71875 -59.609375 C 77.957031 -63.046875 82.253906 -64.765625 86.609375 -64.765625 C 87.460938 -64.765625 87.890625 -64.335938 87.890625 -63.484375 C 84.347656 -55.691406 81.625 -47.832031 79.71875 -39.90625 C 77.8125 -31.988281 76.332031 -24.285156 75.28125 -16.796875 C 74.238281 -9.304688 73.71875 -2.957031 73.71875 2.25 C 73.71875 3.007812 73.335938 3.390625 72.578125 3.390625 C 70.703125 3.390625 69.765625 1.238281 69.765625 -3.0625 C 69.765625 -8.488281 69.253906 -13.398438 68.234375 -17.796875 C 66.359375 -26.179688 63.082031 -31.71875 58.40625 -34.40625 C 57.8125 -33.269531 56.695312 -31.117188 55.0625 -27.953125 C 53.425781 -24.785156 52.21875 -22.460938 51.4375 -20.984375 C 50.65625 -19.503906 49.5 -17.4375 47.96875 -14.78125 C 46.4375 -12.125 45.132812 -9.988281 44.0625 -8.375 C 41.488281 -4.507812 38.695312 -1.128906 35.6875 1.765625 C 36.226562 1.929688 36.875 2.015625 37.625 2.015625 C 42.132812 2.015625 45.863281 0.523438 48.8125 -2.453125 C 51.769531 -5.429688 53.8125 -8.960938 54.9375 -13.046875 C 55.101562 -13.640625 55.535156 -13.910156 56.234375 -13.859375 C 56.660156 -13.804688 56.820312 -13.59375 56.71875 -13.21875 C 55.53125 -8.59375 53.285156 -4.546875 49.984375 -1.078125 C 46.679688 2.378906 42.535156 4.109375 37.546875 4.109375 C 36.410156 4.109375 35.144531 3.921875 33.75 3.546875 C 28.8125 7.515625 23.550781 9.5 17.96875 9.5 C 10.71875 9.5 5.5625 6.65625 2.5 0.96875 C 0.832031 -2.09375 0 -5.394531 0 -8.9375 C 0 -10.820312 0.238281 -12.785156 0.71875 -14.828125 C 2.007812 -20.359375 4.644531 -24.304688 8.625 -26.671875 C 10.601562 -27.847656 12.773438 -28.4375 15.140625 -28.4375 C 15.890625 -28.4375 16.503906 -28.207031 16.984375 -27.75 C 17.472656 -27.289062 17.828125 -26.582031 18.046875 -25.625 C 14.878906 -25.625 12.03125 -24.492188 9.5 -22.234375 C 5.257812 -18.523438 3.140625 -13.257812 3.140625 -6.4375 C 3.140625 -2.300781 4.382812 0.929688 6.875 3.265625 C 9.375 5.597656 12.734375 6.765625 16.953125 6.765625 C 21.171875 6.765625 25.457031 4.882812 29.8125 1.125 Z M 51.078125 -36.25 C 46.566406 -36.25 42.507812 -34.769531 38.90625 -31.8125 C 35.3125 -28.863281 32.679688 -25.414062 31.015625 -21.46875 C 29.347656 -17.519531 28.515625 -13.53125 28.515625 -9.5 C 28.515625 -5.476562 29.535156 -2.421875 31.578125 -0.328125 C 33.617188 -2.253906 35.789062 -4.785156 38.09375 -7.921875 C 40.40625 -11.066406 42.234375 -13.710938 43.578125 -15.859375 C 44.921875 -18.015625 47.015625 -21.507812 49.859375 -26.34375 C 52.710938 -31.175781 54.566406 -34.289062 55.421875 -35.6875 C 54.128906 -36.0625 52.679688 -36.25 51.078125 -36.25 Z M 82.40625 -61.625 C 78.113281 -60.5 74.191406 -57.84375 70.640625 -53.65625 C 67.097656 -49.46875 63.476562 -43.910156 59.78125 -36.984375 C 64.988281 -34.128906 68.640625 -28.4375 70.734375 -19.90625 C 71.703125 -29.03125 73.269531 -37.421875 75.4375 -45.078125 C 77.613281 -52.734375 79.9375 -58.25 82.40625 -61.625 Z M 82.40625 -61.625 "/></g></g></g><g fill="#ffffff" fill-opacity="1"><g transform="translate(85.748978, 82.179598)"><g><path d="M 6.765625 0 C 2.253906 0 0 -3.460938 0 -10.390625 C 0 -14.421875 1.019531 -18.851562 3.0625 -23.6875 C 5.851562 -30.457031 9.53125 -35.050781 14.09375 -37.46875 C 16.082031 -38.539062 17.878906 -39.078125 19.484375 -39.078125 C 21.097656 -39.078125 22.332031 -38.789062 23.1875 -38.21875 C 24.050781 -37.65625 24.617188 -37.082031 24.890625 -36.5 L 25.296875 -35.609375 C 25.140625 -34.691406 24.65625 -34.234375 23.84375 -34.234375 C 23.039062 -34.234375 22.460938 -34.675781 22.109375 -35.5625 C 21.765625 -36.445312 20.945312 -36.890625 19.65625 -36.890625 C 16.164062 -36.890625 13.050781 -33.804688 10.3125 -27.640625 C 7.144531 -20.648438 5.5625 -14.039062 5.5625 -7.8125 C 5.5625 -4.539062 6.234375 -2.90625 7.578125 -2.90625 C 8.648438 -2.90625 10.21875 -4.234375 12.28125 -6.890625 C 14.351562 -9.546875 16.488281 -12.78125 18.6875 -16.59375 C 21.695312 -21.851562 24.359375 -26.660156 26.671875 -31.015625 C 28.597656 -39.390625 30.941406 -46.707031 33.703125 -52.96875 C 36.472656 -59.226562 38.773438 -62.359375 40.609375 -62.359375 C 41.515625 -62.359375 41.96875 -61.898438 41.96875 -60.984375 C 40.6875 -58.191406 39.171875 -54.378906 37.421875 -49.546875 C 35.671875 -44.710938 34.191406 -40.101562 32.984375 -35.71875 C 31.773438 -31.34375 30.675781 -26.117188 29.6875 -20.046875 C 28.695312 -13.984375 28.203125 -8.269531 28.203125 -2.90625 C 28.203125 5.101562 29.945312 9.109375 33.4375 9.109375 C 34.78125 9.109375 36.023438 8.53125 37.171875 7.375 C 38.328125 6.21875 39.148438 5.078125 39.640625 3.953125 C 39.910156 3.359375 40.394531 3.195312 41.09375 3.46875 C 41.351562 3.570312 41.457031 3.734375 41.40625 3.953125 C 41.082031 4.648438 40.675781 5.453125 40.1875 6.359375 C 39.707031 7.273438 38.753906 8.40625 37.328125 9.75 C 35.910156 11.09375 34.476562 11.765625 33.03125 11.765625 C 26.632812 11.765625 23.4375 5.75 23.4375 -6.28125 C 23.4375 -10.519531 23.816406 -15.0625 24.578125 -19.90625 L 23.53125 -19.90625 C 15.957031 -6.632812 10.367188 0 6.765625 0 Z M 6.765625 0 "/></g></g></g><g fill="#ffffff" fill-opacity="1"><g transform="translate(124.981416, 82.179598)"><g><path d="M 6.765625 0 C 2.253906 0 0 -3.460938 0 -10.390625 C 0 -14.421875 1.019531 -18.851562 3.0625 -23.6875 C 5.851562 -30.457031 9.53125 -35.050781 14.09375 -37.46875 C 16.082031 -38.539062 17.878906 -39.078125 19.484375 -39.078125 C 21.097656 -39.078125 22.332031 -38.789062 23.1875 -38.21875 C 24.050781 -37.65625 24.617188 -37.082031 24.890625 -36.5 L 25.296875 -35.609375 C 25.140625 -34.691406 24.65625 -34.234375 23.84375 -34.234375 C 23.039062 -34.234375 22.460938 -34.675781 22.109375 -35.5625 C 21.765625 -36.445312 20.945312 -36.890625 19.65625 -36.890625 C 16.164062 -36.890625 13.050781 -33.804688 10.3125 -27.640625 C 7.144531 -20.648438 5.5625 -14.039062 5.5625 -7.8125 C 5.5625 -4.539062 6.234375 -2.90625 7.578125 -2.90625 C 8.648438 -2.90625 10.21875 -4.234375 12.28125 -6.890625 C 14.351562 -9.546875 16.488281 -12.78125 18.6875 -16.59375 C 21.695312 -21.851562 24.359375 -26.660156 26.671875 -31.015625 C 28.597656 -39.390625 30.941406 -46.707031 33.703125 -52.96875 C 36.472656 -59.226562 38.773438 -62.359375 40.609375 -62.359375 C 41.515625 -62.359375 41.96875 -61.898438 41.96875 -60.984375 C 40.6875 -58.191406 39.171875 -54.378906 37.421875 -49.546875 C 35.671875 -44.710938 34.191406 -40.101562 32.984375 -35.71875 C 31.773438 -31.34375 30.675781 -26.117188 29.6875 -20.046875 C 28.695312 -13.984375 28.203125 -8.269531 28.203125 -2.90625 C 28.203125 5.101562 29.945312 9.109375 33.4375 9.109375 C 34.78125 9.109375 36.023438 8.53125 37.171875 7.375 C 38.328125 6.21875 39.148438 5.078125 39.640625 3.953125 C 39.910156 3.359375 40.394531 3.195312 41.09375 3.46875 C 41.351562 3.570312 41.457031 3.734375 41.40625 3.953125 C 41.082031 4.648438 40.675781 5.453125 40.1875 6.359375 C 39.707031 7.273438 38.753906 8.40625 37.328125 9.75 C 35.910156 11.09375 34.476562 11.765625 33.03125 11.765625 C 26.632812 11.765625 23.4375 5.75 23.4375 -6.28125 C 23.4375 -10.519531 23.816406 -15.0625 24.578125 -19.90625 L 23.53125 -19.90625 C 15.957031 -6.632812 10.367188 0 6.765625 0 Z M 6.765625 0 "/></g></g></g><g fill="#ffffff" fill-opacity="1"><g transform="translate(164.213855, 82.179598)"><g/></g></g><g fill="#ffffff" fill-opacity="1"><g transform="translate(185.723218, 82.179598)"><g><path d="M 6.203125 -13.046875 C 13.128906 -30.179688 19.867188 -38.75 26.421875 -38.75 C 29.160156 -38.75 30.53125 -37.429688 30.53125 -34.796875 C 30.15625 -33.566406 29.671875 -31.941406 29.078125 -29.921875 C 28.492188 -27.910156 27.703125 -24.300781 26.703125 -19.09375 C 25.710938 -13.882812 25.21875 -9.316406 25.21875 -5.390625 C 25.21875 0.296875 26.050781 3.140625 27.71875 3.140625 C 28.363281 3.140625 28.976562 2.882812 29.5625 2.375 C 30.15625 1.863281 30.5625 1.609375 30.78125 1.609375 C 31.53125 1.609375 31.53125 2.203125 30.78125 3.390625 C 30.507812 3.765625 30.007812 4.269531 29.28125 4.90625 C 28.5625 5.550781 27.820312 5.875 27.0625 5.875 C 25.019531 5.875 23.421875 4.410156 22.265625 1.484375 C 21.117188 -1.441406 20.546875 -5.238281 20.546875 -9.90625 C 20.546875 -17.320312 21.695312 -25.457031 24 -34.3125 C 24.21875 -35.007812 24.003906 -35.359375 23.359375 -35.359375 C 22.929688 -35.359375 22.445312 -35.144531 21.90625 -34.71875 C 19.332031 -32.46875 16.617188 -28.734375 13.765625 -23.515625 C 10.921875 -18.304688 8.691406 -13.648438 7.078125 -9.546875 C 5.472656 -5.441406 4.671875 -3.050781 4.671875 -2.375 C 4.671875 -1.707031 4.296875 -1.375 3.546875 -1.375 C 1.828125 -1.375 0.96875 -3.492188 0.96875 -7.734375 C 0.96875 -15.734375 1.785156 -22.984375 3.421875 -29.484375 C 5.054688 -35.984375 7.03125 -39.234375 9.34375 -39.234375 C 10.3125 -39.234375 10.796875 -38.644531 10.796875 -37.46875 C 8.328125 -29.457031 6.554688 -21.316406 5.484375 -13.046875 Z M 6.203125 -13.046875 "/></g></g></g><g fill="#ffffff" fill-opacity="1"><g transform="translate(221.813842, 82.179598)"><g><path d="M 21.109375 -39.078125 C 25.191406 -39.078125 27.234375 -36.6875 27.234375 -31.90625 C 27.234375 -29.164062 26.316406 -26.289062 24.484375 -23.28125 C 21.367188 -18.289062 17.234375 -15.796875 12.078125 -15.796875 C 11.273438 -15.796875 10.601562 -15.925781 10.0625 -16.1875 C 9.53125 -16.457031 9.128906 -16.863281 8.859375 -17.40625 C 12.671875 -17.40625 16.160156 -19.601562 19.328125 -24 C 21.910156 -27.550781 23.203125 -30.800781 23.203125 -33.75 C 23.203125 -35.957031 22.316406 -37.0625 20.546875 -37.0625 C 16.992188 -37.0625 13.6875 -34.296875 10.625 -28.765625 C 7.351562 -22.742188 5.71875 -16.566406 5.71875 -10.234375 C 5.71875 -4.859375 7.25 -1.632812 10.3125 -0.5625 C 10.90625 -0.34375 11.65625 -0.234375 12.5625 -0.234375 C 13.476562 -0.234375 14.445312 -0.460938 15.46875 -0.921875 C 16.488281 -1.378906 17.347656 -1.929688 18.046875 -2.578125 C 19.441406 -3.867188 20.59375 -5.289062 21.5 -6.84375 C 21.71875 -7.28125 22.125 -7.5 22.71875 -7.5 C 23.6875 -7.5 24.140625 -7.335938 24.078125 -7.015625 C 23.921875 -6.421875 23.316406 -5.425781 22.265625 -4.03125 C 21.222656 -2.632812 20.257812 -1.519531 19.375 -0.6875 C 18.488281 0.144531 17.332031 0.894531 15.90625 1.5625 C 14.488281 2.238281 13.050781 2.578125 11.59375 2.578125 C 5.90625 2.578125 2.28125 -0.109375 0.71875 -5.484375 C 0.238281 -7.304688 0 -9.1875 0 -11.125 C 0 -14.71875 0.832031 -18.632812 2.5 -22.875 C 5.125 -29.320312 8.75 -33.96875 13.375 -36.8125 C 15.894531 -38.320312 18.472656 -39.078125 21.109375 -39.078125 Z M 21.109375 -39.078125 "/></g></g></g><g fill="#ffffff" fill-opacity="1"><g transform="translate(253.151449, 82.179598)"><g><path d="M 43.671875 -36.5 C 45.222656 -35.3125 46.707031 -34.71875 48.125 -34.71875 C 49.550781 -34.71875 50.5625 -34.90625 51.15625 -35.28125 C 51.15625 -34.582031 50.84375 -33.925781 50.21875 -33.3125 C 49.601562 -32.695312 48.71875 -32.390625 47.5625 -32.390625 C 46.414062 -32.390625 45.171875 -32.65625 43.828125 -33.1875 C 43.722656 -28.144531 42.890625 -22.976562 41.328125 -17.6875 C 39.773438 -12.394531 37.757812 -7.960938 35.28125 -4.390625 C 32.8125 -0.816406 30.367188 0.96875 27.953125 0.96875 C 25.535156 0.96875 23.679688 0.0234375 22.390625 -1.859375 C 21.046875 -3.953125 20.375 -6.929688 20.375 -10.796875 C 20.375 -12.992188 20.507812 -15.359375 20.78125 -17.890625 C 14.125 -5.960938 9.007812 0 5.4375 0 C 1.863281 0 0.078125 -3.003906 0.078125 -9.015625 C 0.078125 -15.253906 1.609375 -21.914062 4.671875 -29 C 7.253906 -34.644531 9.617188 -37.597656 11.765625 -37.859375 C 12.785156 -37.859375 13.296875 -37.296875 13.296875 -36.171875 C 12.648438 -34.617188 11.84375 -32.617188 10.875 -30.171875 C 9.90625 -27.722656 8.628906 -23.8125 7.046875 -18.4375 C 5.460938 -13.070312 4.671875 -9.113281 4.671875 -6.5625 C 4.671875 -4.007812 5.234375 -2.734375 6.359375 -2.734375 C 7.753906 -2.734375 9.941406 -4.988281 12.921875 -9.5 C 15.910156 -14.019531 18.53125 -18.535156 20.78125 -23.046875 L 24.25 -29.734375 C 25.75 -32.734375 27.085938 -34.234375 28.265625 -34.234375 C 29.453125 -34.234375 30.046875 -33.671875 30.046875 -32.546875 C 26.773438 -21.316406 25.140625 -12.535156 25.140625 -6.203125 C 25.140625 -3.242188 26 -1.765625 27.71875 -1.765625 C 29.644531 -1.765625 31.671875 -3.363281 33.796875 -6.5625 C 35.921875 -9.757812 37.691406 -13.921875 39.109375 -19.046875 C 40.535156 -24.179688 41.25 -29.242188 41.25 -34.234375 L 41.25 -34.71875 C 39.6875 -35.851562 38.421875 -37.195312 37.453125 -38.75 C 36.492188 -40.3125 36.015625 -41.476562 36.015625 -42.25 C 36.015625 -43.03125 36.363281 -43.742188 37.0625 -44.390625 C 37.757812 -45.035156 38.507812 -45.359375 39.3125 -45.359375 C 40.332031 -45.359375 41.242188 -44.457031 42.046875 -42.65625 C 42.859375 -40.851562 43.398438 -38.800781 43.671875 -36.5 Z M 43.671875 -36.5 "/></g></g></g><g fill="#ffffff" fill-opacity="1"><g transform="translate(303.823321, 82.179598)"><g/></g></g><g fill="#ffffff" fill-opacity="1"><g transform="translate(325.332673, 82.179598)"><g><path d="M 63.71875 -1.859375 C 63.71875 5.453125 65.382812 9.109375 68.71875 9.109375 C 70.863281 9.109375 72.660156 7.519531 74.109375 4.34375 C 74.429688 3.8125 74.914062 3.648438 75.5625 3.859375 C 75.832031 3.972656 75.898438 4.203125 75.765625 4.546875 C 75.628906 4.898438 75.425781 5.332031 75.15625 5.84375 C 74.894531 6.351562 74.414062 7.144531 73.71875 8.21875 C 72.101562 10.582031 70.25 11.765625 68.15625 11.765625 C 61.65625 11.765625 58.40625 6.609375 58.40625 -3.703125 C 58.40625 -15.304688 62.515625 -33.429688 70.734375 -58.078125 C 70.941406 -58.722656 70.816406 -59.046875 70.359375 -59.046875 C 69.910156 -59.046875 69.414062 -58.804688 68.875 -58.328125 C 66.03125 -55.640625 63.117188 -52.039062 60.140625 -47.53125 C 57.160156 -43.019531 54.539062 -38.457031 52.28125 -33.84375 C 48.3125 -25.832031 45.382812 -19.171875 43.5 -13.859375 C 40.976562 -6.390625 38.75 -2.65625 36.8125 -2.65625 C 35.6875 -2.65625 35.125 -3.21875 35.125 -4.34375 C 35.125 -4.40625 35.148438 -4.460938 35.203125 -4.515625 C 41.921875 -28.835938 45.28125 -44.117188 45.28125 -50.359375 C 45.28125 -53.148438 44.660156 -54.546875 43.421875 -54.546875 C 40.953125 -54.546875 37.054688 -49.9375 31.734375 -40.71875 C 26.421875 -31.507812 22.421875 -22.285156 19.734375 -13.046875 C 16.515625 -1.929688 13.671875 3.625 11.203125 3.625 C 10.066406 3.625 9.5 3.035156 9.5 1.859375 C 9.550781 1.691406 9.710938 1.234375 9.984375 0.484375 C 10.253906 -0.265625 10.601562 -1.378906 11.03125 -2.859375 C 11.457031 -4.335938 12.140625 -6.671875 13.078125 -9.859375 C 14.023438 -13.054688 14.820312 -16.160156 15.46875 -19.171875 C 17.613281 -29.160156 18.6875 -36.359375 18.6875 -40.765625 C 18.6875 -43.128906 18.523438 -45.476562 18.203125 -47.8125 C 17.878906 -50.144531 17.070312 -52.035156 15.78125 -53.484375 C 14.5 -54.941406 12.8125 -55.671875 10.71875 -55.671875 C 7.4375 -55.671875 5.125 -54.300781 3.78125 -51.5625 C 3.351562 -50.59375 3.140625 -49.769531 3.140625 -49.09375 C 3.140625 -48.425781 3.328125 -48.09375 3.703125 -48.09375 C 3.546875 -47.34375 2.898438 -46.96875 1.765625 -46.96875 C 0.640625 -46.96875 0.078125 -47.691406 0.078125 -49.140625 C 0.078125 -51.347656 1.191406 -53.3125 3.421875 -55.03125 C 5.648438 -56.75 8.1875 -57.609375 11.03125 -57.609375 C 13.875 -57.609375 16.140625 -56.894531 17.828125 -55.46875 C 19.523438 -54.039062 20.75 -52.144531 21.5 -49.78125 C 22.738281 -45.863281 23.359375 -41.625 23.359375 -37.0625 C 23.359375 -35.34375 23.25 -33.566406 23.03125 -31.734375 L 23.84375 -31.734375 C 32.382812 -49.035156 39.554688 -57.6875 45.359375 -57.6875 C 48.679688 -57.6875 50.34375 -54.835938 50.34375 -49.140625 C 50.34375 -46.398438 49.726562 -41.59375 48.5 -34.71875 L 49.21875 -34.71875 C 59.050781 -53.25 67.109375 -62.515625 73.390625 -62.515625 C 75.804688 -62.515625 77.015625 -61.171875 77.015625 -58.484375 C 75.347656 -54.347656 73.492188 -48.707031 71.453125 -41.5625 C 66.296875 -23.894531 63.71875 -10.660156 63.71875 -1.859375 Z M 63.71875 -1.859375 "/></g></g></g><g fill="#ffffff" fill-opacity="1"><g transform="translate(403.314221, 82.179598)"><g><path d="M 21.109375 -39.078125 C 25.191406 -39.078125 27.234375 -36.6875 27.234375 -31.90625 C 27.234375 -29.164062 26.316406 -26.289062 24.484375 -23.28125 C 21.367188 -18.289062 17.234375 -15.796875 12.078125 -15.796875 C 11.273438 -15.796875 10.601562 -15.925781 10.0625 -16.1875 C 9.53125 -16.457031 9.128906 -16.863281 8.859375 -17.40625 C 12.671875 -17.40625 16.160156 -19.601562 19.328125 -24 C 21.910156 -27.550781 23.203125 -30.800781 23.203125 -33.75 C 23.203125 -35.957031 22.316406 -37.0625 20.546875 -37.0625 C 16.992188 -37.0625 13.6875 -34.296875 10.625 -28.765625 C 7.351562 -22.742188 5.71875 -16.566406 5.71875 -10.234375 C 5.71875 -4.859375 7.25 -1.632812 10.3125 -0.5625 C 10.90625 -0.34375 11.65625 -0.234375 12.5625 -0.234375 C 13.476562 -0.234375 14.445312 -0.460938 15.46875 -0.921875 C 16.488281 -1.378906 17.347656 -1.929688 18.046875 -2.578125 C 19.441406 -3.867188 20.59375 -5.289062 21.5 -6.84375 C 21.71875 -7.28125 22.125 -7.5 22.71875 -7.5 C 23.6875 -7.5 24.140625 -7.335938 24.078125 -7.015625 C 23.921875 -6.421875 23.316406 -5.425781 22.265625 -4.03125 C 21.222656 -2.632812 20.257812 -1.519531 19.375 -0.6875 C 18.488281 0.144531 17.332031 0.894531 15.90625 1.5625 C 14.488281 2.238281 13.050781 2.578125 11.59375 2.578125 C 5.90625 2.578125 2.28125 -0.109375 0.71875 -5.484375 C 0.238281 -7.304688 0 -9.1875 0 -11.125 C 0 -14.71875 0.832031 -18.632812 2.5 -22.875 C 5.125 -29.320312 8.75 -33.96875 13.375 -36.8125 C 15.894531 -38.320312 18.472656 -39.078125 21.109375 -39.078125 Z M 21.109375 -39.078125 "/></g></g></g><g fill="#ffffff" fill-opacity="1"><g transform="translate(434.651851, 82.179598)"><g><path d="M 19.734375 -9.828125 C 19.734375 -16.429688 20.941406 -24.785156 23.359375 -34.890625 C 23.523438 -35.421875 23.363281 -35.660156 22.875 -35.609375 C 22.5 -35.554688 22.148438 -35.394531 21.828125 -35.125 C 19.460938 -33.132812 16.859375 -29.453125 14.015625 -24.078125 C 11.171875 -18.710938 8.890625 -13.8125 7.171875 -9.375 C 5.453125 -4.945312 4.59375 -2.359375 4.59375 -1.609375 C 4.59375 -0.960938 4.191406 -0.640625 3.390625 -0.640625 C 1.773438 -0.640625 0.96875 -2.765625 0.96875 -7.015625 C 0.96875 -15.066406 1.769531 -22.328125 3.375 -28.796875 C 4.988281 -35.273438 6.953125 -38.515625 9.265625 -38.515625 C 10.285156 -38.515625 10.796875 -37.945312 10.796875 -36.8125 C 8.328125 -29.03125 6.554688 -21.03125 5.484375 -12.8125 L 6.203125 -12.8125 C 13.296875 -30.53125 19.820312 -39.390625 25.78125 -39.390625 C 28.351562 -39.390625 29.640625 -38.128906 29.640625 -35.609375 C 27.117188 -28.085938 25.296875 -20.675781 24.171875 -13.375 L 24.8125 -13.375 C 26.582031 -17.132812 28.367188 -20.554688 30.171875 -23.640625 C 31.972656 -26.734375 34.082031 -29.609375 36.5 -32.265625 C 38.914062 -34.921875 41.085938 -36.25 43.015625 -36.25 C 45.597656 -36.25 46.890625 -35.015625 46.890625 -32.546875 C 44.097656 -23.253906 42.703125 -14.203125 42.703125 -5.390625 C 42.703125 0.296875 43.5625 3.140625 45.28125 3.140625 C 45.863281 3.140625 46.453125 2.882812 47.046875 2.375 C 47.640625 1.863281 48.039062 1.609375 48.25 1.609375 C 49.007812 1.609375 48.984375 2.203125 48.171875 3.390625 C 47.960938 3.765625 47.492188 4.269531 46.765625 4.90625 C 46.035156 5.550781 45.320312 5.875 44.625 5.875 C 42.53125 5.875 40.90625 4.410156 39.75 1.484375 C 38.601562 -1.441406 38.03125 -5.238281 38.03125 -9.90625 C 38.03125 -18.125 38.890625 -25.347656 40.609375 -31.578125 C 40.710938 -31.953125 40.578125 -32.140625 40.203125 -32.140625 C 39.878906 -32.085938 39.554688 -31.925781 39.234375 -31.65625 C 36.171875 -29.03125 32.757812 -24.15625 29 -17.03125 C 25.238281 -9.914062 23.359375 -5.71875 23.359375 -4.4375 C 23.359375 -3.789062 22.929688 -3.46875 22.078125 -3.46875 C 20.515625 -3.46875 19.734375 -5.585938 19.734375 -9.828125 Z M 19.734375 -9.828125 "/></g></g></g><g fill="#ffffff" fill-opacity="1"><g transform="translate(488.223884, 82.179598)"><g><path d="M 9.90625 0.71875 C 3.300781 0.71875 0 -3.816406 0 -12.890625 C 0 -17.992188 1.285156 -23.097656 3.859375 -28.203125 C 7.140625 -34.640625 11.035156 -37.859375 15.546875 -37.859375 C 16.191406 -37.859375 16.726562 -37.695312 17.15625 -37.375 C 17.582031 -37.050781 17.878906 -36.570312 18.046875 -35.9375 C 14.660156 -35.9375 11.734375 -33.222656 9.265625 -27.796875 C 6.796875 -22.367188 5.5625 -17.023438 5.5625 -11.765625 C 5.5625 -5.367188 7.304688 -2.171875 10.796875 -2.171875 C 12.785156 -2.171875 14.851562 -3.6875 17 -6.71875 C 19.144531 -9.757812 20.925781 -13.75 22.34375 -18.6875 C 23.769531 -23.632812 24.484375 -28.601562 24.484375 -33.59375 L 24.484375 -34.5625 C 22.816406 -35.632812 21.445312 -36.972656 20.375 -38.578125 C 19.300781 -40.191406 18.765625 -41.375 18.765625 -42.125 C 18.765625 -42.882812 19.097656 -43.597656 19.765625 -44.265625 C 20.441406 -44.941406 21.128906 -45.28125 21.828125 -45.28125 C 22.847656 -45.28125 23.84375 -44.363281 24.8125 -42.53125 C 25.78125 -40.707031 26.453125 -38.640625 26.828125 -36.328125 C 28.492188 -35.203125 29.957031 -34.640625 31.21875 -34.640625 C 32.476562 -34.640625 33.484375 -34.851562 34.234375 -35.28125 C 34.234375 -34.53125 33.960938 -33.859375 33.421875 -33.265625 C 32.890625 -32.679688 32.054688 -32.390625 30.921875 -32.390625 C 29.796875 -32.390625 28.507812 -32.65625 27.0625 -33.1875 C 27.007812 -28.03125 26.226562 -22.847656 24.71875 -17.640625 C 23.21875 -12.429688 21.125 -8.066406 18.4375 -4.546875 C 15.757812 -1.035156 12.914062 0.71875 9.90625 0.71875 Z M 9.90625 0.71875 "/></g></g></g><g fill="#ffffff" fill-opacity="1"><g transform="translate(521.494924, 82.179598)"><g><path d="M 25.625 -23.125 C 23.582031 -23.125 22.5625 -25.351562 22.5625 -29.8125 C 22.5625 -32.332031 23.039062 -34.691406 24 -36.890625 C 20.351562 -33.722656 16.273438 -27.828125 11.765625 -19.203125 C 7.253906 -10.585938 5 -4.96875 5 -2.34375 C 5 -1.695312 4.566406 -1.375 3.703125 -1.375 C 2.148438 -1.375 1.375 -3.492188 1.375 -7.734375 C 1.375 -15.734375 2.175781 -22.984375 3.78125 -29.484375 C 5.394531 -35.984375 7.359375 -39.234375 9.671875 -39.234375 C 10.691406 -39.234375 11.203125 -38.644531 11.203125 -37.46875 C 8.734375 -29.625 6.957031 -21.59375 5.875 -13.375 L 6.4375 -13.375 C 10.789062 -23.414062 15.597656 -31.253906 20.859375 -36.890625 C 23.867188 -40.117188 26.609375 -41.734375 29.078125 -41.734375 C 29.617188 -41.734375 30.0625 -41.570312 30.40625 -41.25 C 30.757812 -40.925781 30.9375 -40.523438 30.9375 -40.046875 C 30.5625 -39.660156 30.101562 -39.09375 29.5625 -38.34375 C 29.03125 -37.59375 28.304688 -35.804688 27.390625 -32.984375 C 26.472656 -30.171875 26.015625 -27.097656 26.015625 -23.765625 C 26.015625 -23.335938 25.882812 -23.125 25.625 -23.125 Z M 25.625 -23.125 "/></g></g></g><g fill="#ffffff" fill-opacity="1"><g transform="translate(552.349201, 82.179598)"><g><path d="M 2.25 25.21875 C 7.082031 25.21875 10.867188 22.9375 13.609375 18.375 C 15.972656 14.34375 17.800781 9.316406 19.09375 3.296875 C 9.375 3.515625 1.90625 7.222656 -3.3125 14.421875 C -3.625 14.898438 -4.132812 14.976562 -4.84375 14.65625 C -5.21875 14.445312 -5.320312 14.179688 -5.15625 13.859375 C -2.84375 10.367188 0.378906 7.398438 4.515625 4.953125 C 8.648438 2.503906 13.671875 1.175781 19.578125 0.96875 C 20.160156 -1.71875 20.722656 -4.859375 21.265625 -8.453125 C 21.804688 -12.054688 22.425781 -15.550781 23.125 -18.9375 L 22.390625 -18.9375 C 15.410156 -6.53125 10.09375 -0.328125 6.4375 -0.328125 C 2.351562 -0.328125 0.3125 -3.46875 0.3125 -9.75 C 0.3125 -16.03125 1.65625 -22.351562 4.34375 -28.71875 C 7.03125 -35.082031 9.472656 -38.507812 11.671875 -39 L 12.15625 -39.078125 C 13.070312 -39.078125 13.53125 -38.484375 13.53125 -37.296875 C 12.9375 -35.847656 12.179688 -33.953125 11.265625 -31.609375 C 10.359375 -29.273438 9.148438 -25.4375 7.640625 -20.09375 C 6.140625 -14.75 5.390625 -10.585938 5.390625 -7.609375 C 5.390625 -4.628906 6.035156 -3.140625 7.328125 -3.140625 C 8.828125 -3.140625 11.242188 -5.742188 14.578125 -10.953125 C 19.460938 -18.578125 23.707031 -26.3125 27.3125 -34.15625 C 28.863281 -37.4375 30.523438 -39.078125 32.296875 -39.078125 C 33.429688 -39.078125 34 -38.457031 34 -37.21875 C 32.976562 -35.34375 31.738281 -31.828125 30.28125 -26.671875 C 28.832031 -21.515625 27.648438 -16.316406 26.734375 -11.078125 C 25.828125 -5.835938 25.050781 -1.742188 24.40625 1.203125 C 28.488281 1.898438 30.851562 3.675781 31.5 6.53125 C 31.601562 7.007812 31.65625 7.664062 31.65625 8.5 C 31.65625 9.332031 31.332031 10.054688 30.6875 10.671875 C 30.039062 11.285156 29.476562 11.59375 29 11.59375 C 29.101562 11.21875 29.128906 10.5625 29.078125 9.625 C 29.023438 8.6875 28.847656 7.894531 28.546875 7.25 C 28.253906 6.601562 27.707031 5.929688 26.90625 5.234375 C 26.101562 4.535156 25.054688 4.023438 23.765625 3.703125 C 19.628906 19.273438 12.457031 27.0625 2.25 27.0625 C -2.15625 27.0625 -5.082031 25.503906 -6.53125 22.390625 C -6.582031 22.234375 -6.609375 22.101562 -6.609375 22 C -6.609375 21.675781 -6.328125 21.472656 -5.765625 21.390625 C -5.203125 21.304688 -4.785156 21.476562 -4.515625 21.90625 C -3.546875 24.113281 -1.289062 25.21875 2.25 25.21875 Z M 2.25 25.21875 "/></g></g></g></svg>